PathFileType	4	(X/Y/Z)	Patient4_TMGait_0pt4_01_right_21.trc.trc
DataRate	CameraRate	NumFrames	NumMarkers	Units	OrigDataRate	OrigDataStartFrame	OrigNumFrames
79.096045197740	79.096045197740	6	33	mm	79.096045197740	1	       141
Frame#	Time	Sacral			L.Shoulder			Chest			R.Shoulder			Neck			R.ASIS			L.ASIS			R.Thigh.Superior			R.Thigh.Lateral			R.Thigh.Inferior			R.Patella			L.Thigh.Superior			L.Thigh.Lateral			L.Thigh.Inferior			L.Patella			L.Shank.Superior			L.Shank.Lateral			L.Shank.Inferior			R.Shank.Superior			R.Shank.Lateral			R.Shank.Inferior			R.Heel			R.Midfoot.Superior			R.Midfoot.Lateral			R.Toe			L.Heel			L.Midfoot.Lateral			L.Midfoot.Superior			L.Toe			L.Elbow			L.Wrist			R.Elbow			R.Wrist			
		X1	Y1	Z1	X2	Y2	Z2	X3	Y3	Z3	X4	Y4	Z4	X5	Y5	Z5	X6	Y6	Z6	X7	Y7	Z7	X8	Y8	Z8	X9	Y9	Z9	X10	Y10	Z10	X11	Y11	Z11	X12	Y12	Z12	X13	Y13	Z13	X14	Y14	Z14	X15	Y15	Z15	X16	Y16	Z16	X17	Y17	Z17	X18	Y18	Z18	X19	Y19	Z19	X20	Y20	Z20	X21	Y21	Z21	X22	Y22	Z22	X23	Y23	Z23	X24	Y24	Z24	X25	Y25	Z25	X26	Y26	Z26	X27	Y27	Z27	X28	Y28	Z28	X29	Y29	Z29	X30	Y30	Z30	X31	Y31	Z31	X32	Y32	Z32	X33	Y33	Z33	

1	27.060000000000	657.693582802234	1008.701881373444	405.176755020337	844.525383607451	1439.995053214087	232.069716178997	943.328895341801	1371.042471273471	396.120054961226	853.781669654513	1442.870602098931	568.672191851283	831.058933844771	1500.559182233921	389.079545061363	885.102681409304	952.983028470494	529.470106129714	879.176484814790	968.476389981129	254.668169610147	971.419613187273	784.778333813103	502.588159180624	935.666498410911	664.004306043192	580.849116671055	1027.773947649841	625.550501603101	504.426844108689	1049.504656289861	514.540509141660	530.270699309843	921.906977181867	749.851657621077	281.168511867254	826.199680482439	636.750391135861	225.304108745864	907.794305742194	557.017540749112	287.538807860053	904.883252946238	488.931484312122	299.045775757907	878.526906972548	417.199941798953	291.792414153209	787.381467469683	302.993782786135	244.420584072003	837.383524186725	192.003798612369	316.434258986640	975.701664432932	437.630787974163	539.452964605415	855.397500452809	396.712298086204	601.009135656159	844.562046283772	285.462965994603	555.746516048227	646.167228042107	221.568065277650	530.725774011154	815.160788743563	163.045247929520	573.226338029257	705.192326894101	163.053167121571	605.069912644736	877.743921252449	48.614755353043	599.580932260308	709.428970727160	37.858140542789	364.603971167974	779.498717294417	34.718321098928	280.164284311684	864.280655211767	95.264223819060	303.422992726798	991.619131306001	42.112450342356	269.008069969235	798.023136500597	1107.926404606233	79.786897647622	951.864964987686	896.806425962405	106.810272917491	774.110499322858	1098.720428643719	671.392097584032	793.200160207851	838.369948036448	683.834096604127	
2	27.072642857143	657.132987822901	1009.581532969406	403.598583479636	845.939796052843	1440.288923997632	230.514438548873	943.338881122616	1371.375584046680	395.461375331156	852.767179253054	1443.676496594685	567.176448299047	831.455427664764	1501.120596940790	387.295662857232	883.690965583875	954.169267380686	528.994020084045	879.342826451813	968.731642013493	254.159049743771	971.183309293570	787.614024931322	501.743536035846	937.238044024683	666.571279374923	580.313820677991	1029.398726341469	629.048229816262	503.480962253719	1052.851317738254	518.714637491561	529.519334467452	919.770286134003	749.043847697343	281.582793476469	823.128431939192	636.950641250541	224.989800016351	903.411299599358	556.485818844627	287.744198778592	899.702260755957	488.631228427142	299.328789839948	873.418475800153	417.203031717700	291.870736229937	782.369881662288	303.104074019790	244.276502559343	832.109559566631	192.054801929396	316.410206693385	980.870637903097	440.423816261599	538.893245717534	861.750466800651	396.196731790263	600.251027995621	854.165430670226	284.740304339509	555.074341891514	657.765774138411	214.575051582153	529.387074036589	828.307946025564	162.157224762385	573.083928950169	718.244798735779	158.799014475961	604.454461724490	894.415409791221	50.388521835623	600.928295903686	704.010490393686	37.936713190424	364.523102316426	774.133129164800	34.736445725476	280.125778843574	858.968980241077	95.241276916235	303.384762562504	986.285012952144	41.986997344588	268.987273057402	799.988901694105	1106.419950920336	81.732549113558	957.189439070310	899.875685204000	116.830361153391	763.868791708609	1102.657841848652	669.211179600661	773.570742471304	842.362010994739	681.238481819317	
3	27.085285714286	656.571683140558	1010.436111836229	402.057421933356	847.338312363612	1440.560818556983	228.998049486971	943.350900977243	1371.691390023822	394.826864688699	851.765503127853	1444.472912563026	565.707244713304	831.843869959717	1501.657367129609	385.552143572596	882.278858135760	955.318554229297	528.557270862627	879.480347886079	968.942459902458	253.706286577994	970.897840727996	790.347404396114	500.963229628317	938.684653692794	669.029676604966	579.823211402394	1030.886423505971	632.399117407826	502.607820953871	1056.004701765507	522.771611165126	528.865867461166	917.641333325652	748.244887722492	282.056974565613	820.103434348187	637.141233805922	224.690020192740	899.077022971535	555.960336932617	287.970763340182	894.577924085210	488.332321976955	299.616420743374	868.367021590446	417.201521410624	291.957075451367	777.411283215726	303.209233477566	244.137817898450	826.887458533589	192.102780100202	316.392768384067	985.891522839232	443.095037012236	538.406176202057	868.016441183383	395.458850625974	599.561763435307	863.767614162578	283.822478253003	554.452682464889	669.468356431554	207.256632323545	528.085428664707	841.530591045984	161.075152555735	572.979211934022	731.412750864008	154.274165250087	603.892312134571	911.219417708886	52.043438712222	602.309138046738	698.641652642016	38.010413264576	364.445695156863	768.813843133667	34.753205967070	280.088328498714	853.701547043969	95.221017571813	303.348954895525	980.995870413397	41.865393532050	268.967826934972	801.989469417643	1104.962684987277	83.576705830244	962.561736312128	903.100810748118	126.608570787909	753.810176181875	1106.606328788038	667.099531887805	754.370237100359	846.405612855205	678.689190080668	
4	27.097928571429	656.010463484277	1011.237511243244	400.592671634500	848.705022885145	1440.784691619076	227.565419420074	943.365445632636	1371.966983559619	394.245162182158	850.788909223951	1445.244627245049	564.295291416241	832.219557074192	1502.142329447847	383.891577603861	880.868489539800	956.389017807653	528.206061003649	879.571988073004	969.069865890349	253.364130920335	970.485513018890	792.833101444300	500.326889425961	939.811843097753	671.240825422650	579.432240119052	1032.027543366800	635.411499113657	501.888566384343	1058.698399282565	526.568486551585	528.389374883221	915.527790112477	747.459434702703	282.637327461428	817.167439285142	637.310392606620	224.423811411673	894.841066931289	555.442313401325	288.237975805000	889.571008757912	488.032023177584	299.912265705780	863.427068289493	417.186351626527	292.059607141822	772.547745440617	303.304805138912	244.012499495112	821.752785052220	192.141822783572	316.387974357863	990.570129291892	445.512549212872	538.050098019176	874.115345752549	394.272194535948	599.010692628138	873.387119829236	282.539937242803	553.929880648571	681.473774474563	199.310080226809	526.880287642774	854.960782352218	159.657329891220	572.941563451070	744.904658118160	149.244856370791	603.438502152066	928.337410381139	53.553174361614	603.719574608901	693.349452008997	38.075997265830	364.373839783760	763.565157214095	34.768057788281	280.052747576514	848.501565261514	95.204366805176	303.317979226094	975.774622247963	41.750071560143	268.950781224282	804.078203789049	1103.600916233175	85.222010095291	968.037308981822	906.620701818727	135.896819210750	744.144500604630	1110.541613973031	665.128856531077	736.059895576111	850.506644949913	676.257799354808	
5	27.110571428571	655.448707045177	1011.962012595992	399.234945560356	850.027908988453	1440.937554067322	226.254164241964	943.382064151277	1372.181275456425	393.741151721248	849.844893443603	1445.976854395678	562.965701404022	832.580969591627	1502.552315033744	382.347946096720	879.459123195593	957.345958157262	527.979842246747	879.616650163295	969.089160087844	253.174012148314	969.870931232692	794.938165346146	499.904194234902	940.433241067281	673.079996468417	579.188418473528	1032.624015852546	637.912663672439	501.395190589126	1060.688528135564	529.980528876241	528.149937861259	913.434863172037	746.688915216789	283.355970780630	814.350158332147	637.447376144099	224.208641635100	890.739304774165	554.929949023463	288.561897694122	884.727815157838	487.725786919142	300.219096278956	858.634914482813	417.147254571710	292.186161780706	767.803022196174	303.387685713820	243.907546674080	816.720764169592	192.165382553414	316.399986453590	994.734988910043	447.566226593241	537.866900522654	879.997018243649	392.445388536703	598.656875457162	883.062760788577	280.762275168275	553.544878794768	694.007693299918	190.486176507720	525.828209635630	868.752233190711	157.808006700460	572.991922207114	758.954385149005	143.526192563710	603.136677994757	945.963855390622	54.938281846506	605.141704813172	688.140387480443	38.130733281729	364.308571301753	758.390580160119	34.780237934629	280.019540513150	843.371619874114	95.191354973489	303.293537645937	970.623787764759	41.641948826827	268.936859069763	806.310068972674	1102.367414292760	86.592476497998	973.668764778801	910.543180761661	144.500912767573	735.043908582024	1114.430011855601	663.355806801298	719.007079547690	854.651329365228	674.012578250256	
6	27.123214285714	654.886199589678	1012.591254618523	398.006209990854	851.297440664481	1441.001625897242	225.093630082413	943.399204771705	1372.316672317228	393.334684553272	848.937349323317	1446.655124668956	561.738690251092	832.929110136546	1502.869871835100	380.946224845331	878.050818574596	958.163366461908	527.908223552030	879.626927368486	968.991051440885	253.161179088022	968.988275793271	796.549036349528	499.749426595646	940.384474576643	674.444371025535	579.127655010225	1032.504084881350	639.759969728253	501.183505107996	1061.770764649893	532.906510307621	528.180078250269	911.368883796719	745.932611264055	284.225547423991	811.669863406946	637.543386098727	224.059328650687	886.797650815314	554.419218142334	288.952393165344	880.083788097472	487.407627132716	300.538326968409	854.013772645550	417.073821569786	292.342944373860	763.187936617875	303.456495804606	243.828612986259	811.792799502632	192.166774138123	316.430557261560	998.243960007712	449.175217466610	537.876332395766	885.633534733699	389.847236643959	598.542191234087	892.829297061534	278.418372188032	553.322664235860	707.276018730773	180.637170086591	524.979443349232	883.036925523082	155.495513745719	573.138437113280	773.770849123827	137.017978500857	603.014206669731	964.250181194631	56.266997758357	606.540195881341	683.007490177572	38.173086729243	364.249698864919	753.280373558254	34.788984225863	279.988869512876	838.301316665918	95.181003763751	303.276522080907	965.533165114269	41.540421086146	268.926430693875	808.732499643542	1101.280413179572	87.639958371175	979.490260330936	914.924299415448	152.285071271196	726.643711419883	1118.222053678376	661.819848336069	703.481873775088	858.796287623876	672.017531010536	
